<?xml version="1.0" standalone="no"?>
<!DOCTYPE svg PUBLIC "-//W3C//DTD SVG 20010904//EN"
 "http://www.w3.org/TR/2001/REC-SVG-20010904/DTD/svg10.dtd">
<svg version="1.0" xmlns="http://www.w3.org/2000/svg"
 width="398.000000pt" height="398.000000pt" viewBox="0 0 398.000000 398.000000"
 preserveAspectRatio="xMidYMid meet">
<metadata>
Created by potrace 1.11, written by Peter Selinger 2001-2013
</metadata>
<g transform="translate(0.000000,398.000000) scale(0.100000,-0.100000)"
fill="#000000" stroke="none">
<path d="M1943 3385 c-78 -22 -130 -51 -189 -107 -110 -104 -151 -205 -140
-349 5 -73 4 -88 -10 -100 -9 -7 -20 -22 -24 -34 -7 -18 -10 -15 -25 20 -10
22 -20 57 -23 77 -2 21 -11 43 -18 49 -8 6 -14 18 -14 26 0 7 -6 16 -14 19 -8
3 -19 19 -25 36 -9 26 -8 34 14 60 18 21 25 41 25 71 0 22 5 56 12 74 10 28
10 36 -2 43 -8 5 -21 5 -31 -1 -16 -8 -18 -3 -21 48 -3 56 -4 57 -37 64 -35 7
-101 -13 -101 -31 0 -6 -7 -10 -15 -10 -23 0 -34 -32 -47 -135 -11 -83 -10
-103 3 -140 13 -35 13 -46 3 -60 -9 -12 -10 -24 -3 -42 5 -14 7 -40 3 -58 -3
-19 -1 -35 5 -39 6 -4 11 -22 11 -41 0 -18 21 -87 46 -152 36 -93 71 -155 161
-293 64 -96 128 -191 144 -211 l28 -36 -35 -99 c-44 -123 -78 -265 -100 -413
-15 -109 -15 -160 2 -308 l6 -51 -112 -138 c-62 -76 -116 -147 -121 -159 -4
-11 -24 -99 -44 -195 -27 -133 -41 -180 -58 -198 -18 -19 -22 -36 -23 -100 -1
-81 -15 -121 -54 -157 -25 -23 -50 -67 -50 -90 0 -47 94 -73 205 -55 53 9 64
15 112 65 29 30 53 58 53 62 0 5 -7 48 -17 96 l-17 88 29 97 c16 53 40 138 54
189 l26 91 145 127 c80 69 154 137 165 149 32 37 63 39 91 6 13 -15 96 -76
183 -135 l159 -107 8 -137 c5 -75 9 -212 9 -306 l0 -169 29 -16 c16 -8 39 -26
51 -39 27 -30 112 -39 199 -21 98 20 111 85 28 148 -67 51 -83 132 -88 434 -2
130 -7 205 -15 220 -6 13 -68 77 -137 142 l-124 120 8 50 c4 28 7 102 5 163
l-2 113 35 52 c23 34 37 47 40 37 3 -8 17 -60 31 -116 28 -116 114 -311 157
-361 15 -18 28 -39 28 -48 0 -8 11 -19 25 -24 13 -5 31 -23 40 -40 8 -16 23
-30 33 -30 14 0 17 -7 14 -40 -2 -22 3 -61 12 -87 9 -25 16 -57 16 -70 0 -13
7 -26 15 -29 26 -10 45 16 45 62 0 24 3 44 7 44 14 0 100 -61 132 -94 19 -20
38 -36 43 -36 4 0 19 11 32 25 22 22 26 34 25 83 -1 33 -9 72 -20 93 -24 48
-101 127 -132 134 -26 7 -60 65 -51 89 3 8 1 17 -5 21 -6 3 -11 17 -11 29 0
13 -8 34 -19 47 -10 13 -39 65 -64 115 -35 70 -56 133 -91 280 -64 260 -71
279 -114 311 -21 15 -38 28 -40 29 -2 1 4 16 13 33 18 35 12 51 -29 90 -14 14
-26 30 -26 37 0 6 21 40 46 75 26 35 55 81 65 104 19 42 43 187 54 317 4 47
12 81 21 89 21 17 18 49 -5 49 -24 0 -37 73 -21 115 17 46 16 155 -3 191 -24
47 -181 180 -235 199 -66 24 -279 30 -349 10z m-543 -64 c0 -68 -10 -111 -27
-111 -11 0 -12 13 -7 68 7 80 10 92 24 92 5 0 10 -22 10 -49z m40 -44 c0 -71
-3 -87 -20 -102 -28 -26 -25 -39 5 -18 13 10 25 26 25 35 0 9 12 30 26 45 l26
28 -7 -25 c-4 -14 -10 -47 -12 -75 -6 -64 -38 -100 -96 -108 -23 -4 -54 -9
-69 -13 -24 -5 -29 -2 -38 21 -24 64 6 283 35 254 7 -8 -16 -132 -27 -146 -14
-17 -9 -16 37 7 22 11 50 20 62 20 21 0 23 5 23 49 0 27 3 63 6 80 12 58 24
31 24 -52z m-87 6 c-5 -63 -16 -93 -32 -93 -4 0 -1 35 5 78 14 90 12 82 24 82
5 0 7 -27 3 -67z m1053 -248 c-20 -30 -12 -32 32 -5 24 15 34 17 37 8 10 -28
25 -105 25 -130 0 -22 -3 -25 -22 -20 -13 3 -33 12 -46 20 -41 27 -162 -9
-148 -44 7 -19 -25 -34 -74 -34 -33 0 -42 4 -49 24 -12 29 -29 36 -96 36 -41
0 -60 -5 -82 -24 -30 -24 -78 -43 -128 -48 -28 -3 -30 -1 -27 27 2 17 9 36 16
44 8 7 72 32 142 55 71 24 159 57 197 74 74 34 89 30 27 -8 -79 -49 -80 -49
-29 -50 62 0 125 23 184 69 28 21 52 37 54 35 2 -2 -4 -15 -13 -29z m79 -195
c18 -15 20 -111 4 -142 -14 -26 -69 -49 -100 -41 -24 6 -79 50 -79 64 0 4 31
10 69 14 51 5 75 12 88 27 17 19 17 21 -11 45 -25 21 -37 24 -73 20 -24 -2
-53 -13 -63 -22 -11 -10 -20 -14 -20 -9 1 50 139 82 185 44z m-342 -42 c26
-31 21 -42 -9 -19 -19 15 -41 21 -75 21 -40 0 -54 -5 -81 -30 l-33 -30 24 -20
c23 -20 60 -21 164 -5 32 5 33 0 7 -42 -31 -51 -117 -63 -165 -23 -22 18 -48
97 -41 123 13 55 168 73 209 25z m301 -1 c33 -24 10 -44 -61 -52 -72 -8 -96 2
-73 30 12 15 14 15 22 1 12 -22 55 -20 67 3 6 10 7 21 4 25 -12 12 23 6 41 -7z
m-178 -34 c3 -16 17 -62 30 -104 27 -83 24 -106 -14 -120 -14 -5 -22 -12 -19
-15 6 -6 45 13 64 32 15 15 17 36 4 50 -5 5 -12 20 -16 32 -7 24 -7 24 20 6
38 -25 108 -23 146 5 l30 22 -5 -23 c-3 -13 -10 -59 -17 -103 -6 -44 -17 -96
-25 -114 -19 -46 -63 -103 -74 -96 -5 3 -11 1 -14 -3 -11 -18 -57 1 -71 28
-20 38 -58 31 -71 -13 -6 -22 -16 -33 -31 -35 -13 -2 -23 -8 -23 -13 0 -6 -7
-6 -19 1 -26 13 -44 13 -35 -1 13 -22 -89 2 -150 34 -64 34 -104 81 -132 153
-9 24 -21 44 -26 44 -5 0 2 14 14 31 20 27 23 43 23 120 -1 102 14 117 39 43
24 -71 58 -110 108 -122 103 -26 198 44 198 146 0 35 6 42 36 42 18 0 25 -7
30 -27z m-135 -2 c33 -27 18 -37 -68 -44 -56 -5 -74 -3 -84 9 -10 12 -9 18 4
32 16 15 18 15 33 -6 20 -29 55 -26 69 6 12 27 16 27 46 3z m-316 -265 c0 0 8
-18 17 -38 16 -34 16 -39 1 -69 -14 -29 -17 -30 -26 -13 -6 11 -28 45 -50 77
l-39 58 49 -7 c26 -3 48 -7 48 -8z m295 -261 c50 -25 90 -51 90 -59 0 -8 8
-17 18 -21 20 -9 -124 -37 -150 -29 -9 2 -19 15 -22 28 -3 12 -17 39 -31 60
-27 40 -31 51 -15 41 6 -3 10 1 10 9 0 9 2 16 5 16 3 0 46 -20 95 -45z m699
-1099 c31 -16 93 -82 111 -118 9 -16 1 -12 -29 17 -22 21 -41 34 -41 29 0 -6
14 -23 31 -40 17 -16 38 -43 45 -61 19 -45 17 -53 -4 -20 -20 29 -83 80 -90
72 -5 -5 39 -44 50 -45 10 0 62 -90 55 -96 -2 -3 -30 20 -61 52 -32 31 -59 54
-62 51 -3 -3 17 -27 45 -54 28 -27 51 -57 51 -66 0 -23 -17 -22 -29 2 -10 18
-85 76 -128 100 -37 19 -53 4 -53 -50 0 -27 -4 -49 -8 -49 -11 0 -42 128 -42
173 0 32 5 41 31 55 18 9 43 27 58 39 31 27 34 27 70 9z m-341 -549 c2 -16 10
-31 18 -34 16 -6 19 -33 4 -33 -12 0 -6 -32 18 -103 11 -34 27 -55 55 -74 27
-19 37 -32 34 -45 -3 -10 -1 -16 4 -12 5 3 9 -4 9 -16 0 -29 -40 -42 -138 -44
-79 -1 -83 0 -105 27 -12 15 -33 33 -47 40 -20 10 -25 21 -27 57 -1 25 2 62 8
83 6 24 7 43 1 50 -27 33 2 103 32 78 12 -10 13 -9 9 7 -7 29 33 53 82 50 36
-3 40 -6 43 -31z m-1150 -13 c12 -8 22 -23 22 -32 0 -13 2 -14 8 -4 10 16 45
4 38 -13 -2 -6 0 -18 4 -25 5 -8 4 -22 -1 -31 -6 -11 -5 -28 2 -46 6 -15 13
-54 16 -85 4 -55 3 -58 -21 -68 -15 -5 -31 -20 -37 -34 -6 -13 -22 -29 -36
-35 -28 -13 -182 -15 -201 -2 -23 14 -4 77 32 104 31 24 56 87 56 141 0 14 6
27 13 29 7 3 5 6 -5 6 -19 1 -26 41 -8 41 6 0 10 10 10 23 0 13 5 28 12 35 17
17 69 15 96 -4z"/>
<path d="M2170 2573 c0 -17 23 -31 54 -31 17 0 23 3 15 8 -6 5 -19 6 -27 2 -8
-3 -21 3 -28 13 -8 10 -14 14 -14 8z"/>
<path d="M2233 2510 c-50 -6 -82 -15 -104 -31 -31 -22 -32 -22 -45 -4 -13 18
-14 18 -14 -3 0 -33 44 -56 104 -54 177 5 236 24 236 76 0 16 -2 18 -9 7 -8
-12 -14 -12 -44 2 -19 10 -39 16 -44 16 -4 -1 -40 -5 -80 -9z m52 -60 c3 -6
-4 -10 -17 -10 -18 0 -20 2 -8 10 19 12 18 12 25 0z"/>
</g>
</svg>
