<?xml version="1.0" standalone="no"?>
<!DOCTYPE svg PUBLIC "-//W3C//DTD SVG 20010904//EN"
 "http://www.w3.org/TR/2001/REC-SVG-20010904/DTD/svg10.dtd">
<svg version="1.0" xmlns="http://www.w3.org/2000/svg"
 width="398.000000pt" height="398.000000pt" viewBox="0 0 398.000000 398.000000"
 preserveAspectRatio="xMidYMid meet">
<metadata>
Created by potrace 1.11, written by Peter Selinger 2001-2013
</metadata>
<g transform="translate(0.000000,398.000000) scale(0.100000,-0.100000)"
fill="#000000" stroke="none">
<path d="M1939 3386 c-118 -33 -236 -132 -292 -246 -31 -62 -32 -70 -32 -182
1 -65 -3 -118 -7 -118 -5 0 -14 -11 -20 -25 -6 -14 -14 -25 -18 -25 -4 0 -15
28 -24 63 -10 34 -22 69 -27 77 -5 8 -13 25 -18 37 -6 11 -15 24 -21 28 -6 4
-16 18 -21 32 -7 20 -5 30 16 55 17 21 25 41 25 69 0 22 6 55 14 74 12 28 12
36 1 45 -10 8 -19 8 -34 1 -19 -11 -20 -8 -23 46 -3 55 -4 57 -37 65 -38 10
-80 -5 -123 -45 -43 -39 -63 -211 -34 -282 13 -29 13 -35 0 -46 -9 -8 -12 -19
-7 -33 4 -12 8 -41 9 -66 8 -146 74 -308 209 -515 54 -82 117 -176 141 -207
l43 -57 -33 -88 c-42 -109 -80 -262 -101 -412 -16 -107 -16 -154 -1 -323 l5
-48 -114 -140 c-63 -77 -116 -148 -119 -158 -3 -9 -22 -95 -41 -191 -29 -141
-41 -180 -62 -205 -22 -26 -24 -37 -20 -80 6 -64 -15 -135 -49 -167 -31 -29
-54 -71 -54 -98 0 -43 86 -68 192 -56 53 6 67 13 99 44 20 20 46 44 59 54 20
17 21 24 15 75 -4 30 -11 67 -17 81 -13 36 -5 80 50 272 l48 167 156 136 c86
75 159 143 162 151 9 25 60 18 89 -13 15 -16 96 -75 181 -132 l154 -103 8
-151 c8 -161 9 -269 3 -380 -4 -62 -2 -70 19 -85 13 -9 42 -31 65 -50 l42 -33
90 5 c101 5 143 20 151 53 7 28 -17 74 -55 106 -43 37 -62 82 -66 154 -2 36
-8 71 -15 79 -8 9 -11 71 -9 207 2 124 -1 200 -8 213 -6 11 -68 74 -138 140
l-127 119 7 50 c5 28 9 103 9 166 1 111 2 117 32 164 26 40 33 45 37 30 3 -10
18 -64 33 -119 28 -107 124 -330 152 -355 9 -8 23 -27 29 -42 7 -16 19 -28 27
-28 8 0 24 -16 36 -35 12 -19 28 -35 35 -35 9 0 15 -19 18 -58 9 -97 29 -172
47 -172 26 0 40 22 40 61 0 21 4 40 9 43 10 6 114 -68 145 -102 24 -28 32 -27
62 0 19 19 24 33 24 80 0 31 -5 69 -10 83 -16 43 -80 114 -127 142 -46 27 -65
52 -69 93 -6 52 -17 86 -34 105 -10 11 -38 61 -63 111 -35 69 -55 130 -85 260
-59 249 -71 285 -106 320 -17 17 -37 33 -45 35 -11 4 -11 10 3 36 9 18 16 34
16 37 0 3 -16 24 -36 45 l-35 40 17 33 c9 18 28 46 41 62 61 74 89 175 108
396 4 41 14 87 22 101 18 29 11 64 -11 56 -17 -7 -30 72 -17 105 17 45 22 125
12 166 -12 42 -29 63 -122 146 -64 57 -106 80 -177 95 -69 14 -245 13 -303 -3z
m-539 -43 c0 -66 -13 -133 -26 -133 -12 0 -11 73 2 138 6 31 24 28 24 -5z m40
-62 c0 -71 -3 -83 -25 -107 -29 -31 -27 -41 5 -22 11 7 30 32 40 56 21 46 47
61 30 16 -6 -14 -10 -43 -10 -64 0 -57 -36 -96 -97 -103 -27 -3 -58 -9 -70
-12 -19 -6 -23 -1 -34 35 -10 32 -10 60 -1 126 15 110 36 149 27 49 -3 -38
-11 -76 -18 -84 -10 -12 -9 -13 8 -6 11 4 41 15 67 24 43 14 48 19 48 47 0 54
12 124 21 124 5 0 9 -36 9 -79z m-88 17 c-4 -70 -10 -98 -23 -98 -9 0 -4 102
6 138 10 30 20 7 17 -40z m1052 -263 c-14 -21 -14 -25 -1 -25 8 0 26 9 40 20
l25 20 11 -32 c6 -18 13 -57 17 -86 6 -48 5 -52 -12 -46 -11 4 -28 13 -39 21
-47 32 -165 2 -165 -42 0 -25 -17 -35 -60 -35 -41 0 -60 10 -60 30 0 36 -114
45 -170 14 -81 -47 -97 -53 -127 -54 -28 0 -33 4 -33 23 0 41 23 56 163 102
76 25 166 59 200 75 l62 31 -35 -31 c-19 -17 -45 -33 -57 -36 -28 -7 -30 -21
-4 -29 44 -14 185 40 227 86 25 28 37 23 18 -6z m84 -197 c30 -30 5 -157 -33
-172 -29 -11 -80 -6 -103 10 -28 19 -47 52 -29 51 75 -2 119 5 137 23 25 25
25 34 -2 60 -23 22 -111 29 -123 10 -3 -5 -11 -10 -16 -10 -16 0 1 21 25 30
32 13 130 12 144 -2z m-359 -28 c10 -5 21 -16 24 -23 4 -10 -5 -9 -31 5 -79
40 -206 -22 -154 -75 18 -17 27 -18 104 -10 79 8 85 7 80 -9 -9 -35 -61 -68
-106 -68 -52 0 -91 33 -106 91 -12 45 -1 75 33 89 30 12 134 12 156 0z m315
-13 c33 -24 10 -44 -61 -51 -69 -7 -88 -1 -73 23 7 12 11 12 24 2 22 -18 59
-10 71 17 11 26 15 27 39 9z m-184 -21 c0 -7 11 -49 25 -92 14 -43 25 -89 25
-101 0 -29 -27 -44 -58 -32 -14 5 -33 7 -43 4 -18 -6 -24 4 -19 30 1 6 -4 5
-11 -2 -17 -16 -4 -43 21 -43 12 0 30 -5 42 -11 25 -14 57 -6 86 21 l22 21
-20 39 c-11 22 -20 41 -20 44 0 2 17 -5 38 -15 44 -24 99 -22 127 4 19 18 20
18 23 -1 2 -11 -4 -59 -12 -107 -15 -87 -61 -190 -84 -190 -6 0 -16 -5 -22
-11 -19 -19 -62 -4 -74 27 -11 29 -23 34 -64 22 -17 -4 -20 -8 -11 -14 10 -6
9 -13 -4 -32 -19 -30 -60 -42 -89 -26 -18 10 -20 9 -15 -5 5 -13 0 -15 -41 -9
-95 12 -198 89 -228 171 -10 26 -21 51 -25 55 -4 5 2 30 13 55 16 36 19 60 16
119 -6 91 10 98 41 16 28 -77 49 -100 105 -114 92 -23 183 35 193 122 2 24 6
50 9 57 5 17 54 16 54 -2z m-115 -27 c11 -17 -3 -23 -73 -30 -82 -7 -107 2
-91 34 l12 21 15 -22 c21 -31 69 -30 84 3 9 19 14 22 29 15 10 -6 21 -15 24
-21z m-357 -249 c31 0 64 -72 48 -107 -6 -12 -14 -23 -17 -23 -3 0 -27 32 -54
71 -42 65 -45 71 -24 66 13 -4 34 -7 47 -7z m411 -332 l20 -25 -52 -8 c-88
-12 -99 -11 -110 10 -6 11 -22 37 -34 58 -19 29 -21 42 -13 57 10 19 14 18 90
-23 43 -24 88 -55 99 -69z m684 -1100 c51 -65 55 -78 9 -34 -23 22 -45 37 -48
33 -4 -3 8 -18 25 -33 18 -15 41 -44 51 -65 l20 -38 -46 44 c-25 25 -50 45
-55 45 -18 0 -9 -17 21 -39 33 -23 86 -98 78 -107 -3 -3 -29 20 -58 50 -29 31
-60 56 -68 56 -9 0 8 -23 41 -54 31 -30 57 -63 57 -72 0 -14 -8 -10 -37 17
-59 55 -129 101 -149 97 -14 -2 -20 -13 -22 -43 -5 -69 -14 -73 -30 -15 -19
70 -22 162 -4 168 7 2 34 19 60 37 l47 32 37 -18 c20 -10 52 -38 71 -61z
m-429 -454 c9 -3 16 -15 16 -25 0 -14 -8 -19 -32 -20 -27 -1 -28 -2 -8 -6 56
-9 70 -14 70 -28 0 -12 -15 -15 -65 -17 -36 -1 -74 -2 -85 -2 -31 -1 -23 18
13 31 27 10 28 12 9 12 -40 2 -62 -17 -60 -48 1 -15 7 -28 13 -28 5 0 19 -1
30 -2 16 -1 17 -3 5 -11 -12 -8 -11 -14 9 -41 13 -17 17 -29 10 -25 -8 4 -6 1
4 -7 22 -18 20 -26 -10 -50 -13 -10 -23 -26 -22 -35 0 -11 2 -12 6 -4 2 6 8
10 13 7 4 -3 7 3 6 12 -1 11 11 21 32 28 18 6 29 14 26 18 -4 4 2 8 14 8 12 1
28 2 35 3 6 1 11 -5 9 -13 -2 -9 3 -11 13 -7 9 3 30 -4 48 -17 39 -27 48 -38
42 -54 -2 -6 1 -14 8 -16 26 -10 -21 -38 -81 -48 -83 -15 -124 -6 -158 34 -14
18 -36 34 -48 37 -17 5 -21 14 -23 53 -1 25 2 49 7 52 6 3 10 15 10 26 0 11 5
17 10 14 6 -3 2 9 -9 27 -27 47 -17 106 15 94 8 -3 14 1 14 9 0 29 74 54 114
39z m-1136 -40 c28 -20 28 -44 0 -45 -18 -1 -16 -3 7 -8 17 -3 30 -12 30 -19
0 -10 -22 -14 -83 -15 -61 -2 -82 1 -82 11 0 7 10 17 23 22 12 5 16 9 10 9
-16 1 -17 33 -1 49 17 17 69 15 96 -4z m67 -86 c-1 -24 -3 -47 -5 -53 -1 -5
-2 -23 0 -40 1 -26 3 -27 10 -10 l9 20 2 -20 c8 -72 3 -100 -16 -109 -11 -5
-32 -24 -45 -42 -29 -38 -44 -44 -127 -44 -59 0 -113 15 -113 31 0 46 61 110
100 105 14 -1 19 -1 13 1 -26 9 -12 23 22 23 19 0 35 -4 35 -10 0 -5 8 -10 17
-10 9 0 30 -12 45 -27 38 -36 36 -24 -3 16 -29 31 -30 33 -14 57 8 13 13 24
10 24 -3 0 -1 9 5 20 8 15 8 20 -2 20 -7 0 -1 8 15 18 26 16 39 62 17 62 -5 0
-10 7 -10 15 0 12 4 13 19 6 14 -8 18 -20 16 -53z m1055 12 c0 -5 -4 -10 -10
-10 -5 0 -10 5 -10 10 0 6 5 10 10 10 6 0 10 -4 10 -10z m27 -86 c-3 -3 -12
-4 -19 -1 -8 3 -5 6 6 6 11 1 17 -2 13 -5z"/>
<path d="M2228 2510 c-36 -3 -78 -14 -92 -23 -30 -20 -52 -22 -59 -4 -3 6 -6
2 -6 -10 -2 -41 41 -58 133 -54 45 3 96 4 114 3 17 0 32 4 32 9 0 5 6 9 14 9
24 0 46 29 45 58 -1 17 -3 21 -6 10 -5 -22 -4 -22 -39 -3 -31 16 -33 16 -136
5z m49 -66 c-3 -3 -12 -4 -19 -1 -8 3 -5 6 6 6 11 1 17 -2 13 -5z"/>
<path d="M2310 395 c0 -5 5 -17 10 -25 5 -8 10 -10 10 -5 0 6 -5 17 -10 25 -5
8 -10 11 -10 5z"/>
<path d="M1365 309 c-3 -4 2 -6 10 -5 21 3 28 13 10 13 -9 0 -18 -4 -20 -8z"/>
</g>
</svg>
